<svg width="24" height="24" viewBox="0 0 24 24" fill="none" xmlns="http://www.w3.org/2000/svg">
<g clip-path="url(#clip0_105_405)">
<path d="M7.06967 21.9999C6.85814 21.9991 6.6516 21.9398 6.47622 21.8294C6.30084 21.7191 6.16449 21.5627 6.08436 21.3801C6.00422 21.1974 5.98394 20.9967 6.02606 20.8032C6.06819 20.6098 6.17081 20.4324 6.32099 20.2934L15.4012 12.0199L6.32099 3.71656C6.22075 3.62378 6.1412 3.51338 6.0869 3.39177C6.0326 3.27015 6.00465 3.1397 6.00465 3.00795C6.00465 2.8762 6.0326 2.74575 6.0869 2.62414C6.1412 2.50252 6.22075 2.39212 6.32099 2.29935C6.52138 2.11347 6.79247 2.00916 7.07502 2.00916C7.35757 2.00916 7.62859 2.11347 7.82898 2.29935L17.69 11.2814C17.7923 11.375 17.8735 11.4869 17.9286 11.6103C17.9837 11.7338 18.0117 11.8663 18.0108 12C18.0102 12.132 17.9816 12.2626 17.9265 12.3843C17.8714 12.5059 17.791 12.6161 17.69 12.7085L7.82898 21.6906C7.73083 21.7867 7.61314 21.8635 7.48275 21.9167C7.35236 21.9698 7.21193 21.9981 7.06967 21.9999Z" fill="black"/>
</g>
<defs>
<clipPath id="clip0_105_405">
<rect width="12" height="20" fill="white" transform="translate(6 2)"/>
</clipPath>
</defs>
</svg>